<mxfile host="app.diagrams.net" agent="Mozilla/5.0 (Macintosh; Intel Mac OS X 10_15_7) AppleWebKit/537.36 (KHTML, like Gecko) Chrome/141.0.0.0 Safari/537.36" version="28.2.8">
  <diagram id="bZqJ7mzaAMUWRR5Z8nKw" name="Page-1">
    <mxGraphModel dx="1426" dy="824" grid="1" gridSize="10" guides="1" tooltips="1" connect="1" arrows="1" fold="1" page="1" pageScale="1" pageWidth="827" pageHeight="1169" math="0" shadow="0">
      <root>
        <mxCell id="0" />
        <mxCell id="1" parent="0" />
        <mxCell id="KnQpBBQZyuglxRfHKXq0-1" value="Business Systems &amp; Tools" style="whiteSpace=wrap;strokeWidth=2;" vertex="1" parent="1">
          <mxGeometry x="104" y="968" width="640" height="176" as="geometry" />
        </mxCell>
        <mxCell id="KnQpBBQZyuglxRfHKXq0-2" value="Predictive Analytics Platform" style="whiteSpace=wrap;strokeWidth=2;" vertex="1" parent="1">
          <mxGeometry x="105" y="198" width="678" height="720" as="geometry" />
        </mxCell>
        <mxCell id="KnQpBBQZyuglxRfHKXq0-3" value="Data Sources" style="whiteSpace=wrap;strokeWidth=2;" vertex="1" parent="1">
          <mxGeometry x="20" y="20" width="828" height="128" as="geometry" />
        </mxCell>
        <mxCell id="KnQpBBQZyuglxRfHKXq0-4" value="Internal ERP &amp; Transaction Logs" style="whiteSpace=wrap;strokeWidth=2;" vertex="1" parent="1">
          <mxGeometry x="55" y="45" width="260" height="78" as="geometry" />
        </mxCell>
        <mxCell id="KnQpBBQZyuglxRfHKXq0-5" value="External IoT Sensor Data" style="whiteSpace=wrap;strokeWidth=2;" vertex="1" parent="1">
          <mxGeometry x="365" y="57" width="236" height="54" as="geometry" />
        </mxCell>
        <mxCell id="KnQpBBQZyuglxRfHKXq0-6" value="Market Signals" style="whiteSpace=wrap;strokeWidth=2;" vertex="1" parent="1">
          <mxGeometry x="651" y="57" width="163" height="54" as="geometry" />
        </mxCell>
        <mxCell id="KnQpBBQZyuglxRfHKXq0-7" value="Unified Data Ingestion Pipelines" style="whiteSpace=wrap;strokeWidth=2;" vertex="1" parent="1">
          <mxGeometry x="353" y="223" width="260" height="78" as="geometry" />
        </mxCell>
        <mxCell id="KnQpBBQZyuglxRfHKXq0-8" value="High-Performance Data Lakehouse" style="shape=cylinder3;boundedLbl=1;backgroundOutline=1;size=10;strokeWidth=2;whiteSpace=wrap;" vertex="1" parent="1">
          <mxGeometry x="375" y="351" width="215" height="110" as="geometry" />
        </mxCell>
        <mxCell id="KnQpBBQZyuglxRfHKXq0-9" value="Feature Engineering" style="whiteSpace=wrap;strokeWidth=2;" vertex="1" parent="1">
          <mxGeometry x="381" y="511" width="204" height="54" as="geometry" />
        </mxCell>
        <mxCell id="KnQpBBQZyuglxRfHKXq0-10" value="Advanced ML Modelling Environments &#xa;(Time-Series, Regression, LSTM)" style="whiteSpace=wrap;strokeWidth=2;" vertex="1" parent="1">
          <mxGeometry x="353" y="615" width="260" height="126" as="geometry" />
        </mxCell>
        <mxCell id="KnQpBBQZyuglxRfHKXq0-11" value="Scalable Model Serving Architecture &#xa;(Secure APIs)" style="whiteSpace=wrap;strokeWidth=2;" vertex="1" parent="1">
          <mxGeometry x="353" y="791" width="260" height="102" as="geometry" />
        </mxCell>
        <mxCell id="KnQpBBQZyuglxRfHKXq0-12" value="Decision-Ready Visualisation &#xa;(BI Dashboards - Tableau, Power BI)" style="whiteSpace=wrap;strokeWidth=2;" vertex="1" parent="1">
          <mxGeometry x="139" y="993" width="260" height="126" as="geometry" />
        </mxCell>
        <mxCell id="KnQpBBQZyuglxRfHKXq0-13" value="Existing Business Tools &amp; Planners" style="whiteSpace=wrap;strokeWidth=2;" vertex="1" parent="1">
          <mxGeometry x="449" y="1017" width="260" height="78" as="geometry" />
        </mxCell>
        <mxCell id="KnQpBBQZyuglxRfHKXq0-14" value="" style="curved=1;startArrow=none;endArrow=block;exitX=0.5;exitY=1;entryX=0;entryY=0.14;rounded=0;" edge="1" parent="1" source="KnQpBBQZyuglxRfHKXq0-4" target="KnQpBBQZyuglxRfHKXq0-7">
          <mxGeometry relative="1" as="geometry">
            <Array as="points">
              <mxPoint x="185" y="198" />
            </Array>
          </mxGeometry>
        </mxCell>
        <mxCell id="KnQpBBQZyuglxRfHKXq0-15" value="" style="curved=1;startArrow=none;endArrow=block;exitX=0.5;exitY=1;entryX=0.5;entryY=0;rounded=0;" edge="1" parent="1" source="KnQpBBQZyuglxRfHKXq0-5" target="KnQpBBQZyuglxRfHKXq0-7">
          <mxGeometry relative="1" as="geometry">
            <Array as="points" />
          </mxGeometry>
        </mxCell>
        <mxCell id="KnQpBBQZyuglxRfHKXq0-16" value="" style="curved=1;startArrow=none;endArrow=block;exitX=0.5;exitY=1;entryX=1;entryY=0.07;rounded=0;" edge="1" parent="1" source="KnQpBBQZyuglxRfHKXq0-6" target="KnQpBBQZyuglxRfHKXq0-7">
          <mxGeometry relative="1" as="geometry">
            <Array as="points">
              <mxPoint x="732" y="198" />
            </Array>
          </mxGeometry>
        </mxCell>
        <mxCell id="KnQpBBQZyuglxRfHKXq0-17" value="" style="curved=1;startArrow=none;endArrow=block;exitX=0.5;exitY=1;entryX=0.5;entryY=0;rounded=0;" edge="1" parent="1" source="KnQpBBQZyuglxRfHKXq0-7" target="KnQpBBQZyuglxRfHKXq0-8">
          <mxGeometry relative="1" as="geometry">
            <Array as="points" />
          </mxGeometry>
        </mxCell>
        <mxCell id="KnQpBBQZyuglxRfHKXq0-18" value="" style="curved=1;startArrow=none;endArrow=block;exitX=0.5;exitY=1;entryX=0.5;entryY=0.01;rounded=0;" edge="1" parent="1" source="KnQpBBQZyuglxRfHKXq0-8" target="KnQpBBQZyuglxRfHKXq0-9">
          <mxGeometry relative="1" as="geometry">
            <Array as="points" />
          </mxGeometry>
        </mxCell>
        <mxCell id="KnQpBBQZyuglxRfHKXq0-19" value="" style="curved=1;startArrow=none;endArrow=block;exitX=0.5;exitY=1.01;entryX=0.5;entryY=0;rounded=0;" edge="1" parent="1" source="KnQpBBQZyuglxRfHKXq0-9" target="KnQpBBQZyuglxRfHKXq0-10">
          <mxGeometry relative="1" as="geometry">
            <Array as="points" />
          </mxGeometry>
        </mxCell>
        <mxCell id="KnQpBBQZyuglxRfHKXq0-20" value="" style="curved=1;startArrow=none;endArrow=block;exitX=0.5;exitY=1;entryX=0.5;entryY=0;rounded=0;" edge="1" parent="1" source="KnQpBBQZyuglxRfHKXq0-10" target="KnQpBBQZyuglxRfHKXq0-11">
          <mxGeometry relative="1" as="geometry">
            <Array as="points" />
          </mxGeometry>
        </mxCell>
        <mxCell id="KnQpBBQZyuglxRfHKXq0-21" value="" style="curved=1;startArrow=none;endArrow=block;exitX=0;exitY=0.96;entryX=0.5;entryY=0;rounded=0;" edge="1" parent="1" source="KnQpBBQZyuglxRfHKXq0-11" target="KnQpBBQZyuglxRfHKXq0-12">
          <mxGeometry relative="1" as="geometry">
            <Array as="points">
              <mxPoint x="269" y="918" />
            </Array>
          </mxGeometry>
        </mxCell>
        <mxCell id="KnQpBBQZyuglxRfHKXq0-22" value="" style="curved=1;startArrow=none;endArrow=block;exitX=0.75;exitY=1;entryX=0.5;entryY=0.01;rounded=0;" edge="1" parent="1" source="KnQpBBQZyuglxRfHKXq0-11" target="KnQpBBQZyuglxRfHKXq0-13">
          <mxGeometry relative="1" as="geometry">
            <Array as="points">
              <mxPoint x="579" y="918" />
            </Array>
          </mxGeometry>
        </mxCell>
      </root>
    </mxGraphModel>
  </diagram>
</mxfile>
